<svg width="27" height="30" viewBox="0 0 27 30" fill="none" xmlns="http://www.w3.org/2000/svg">
<g clip-path="url(#clip0_10_1516)">
<g clip-path="url(#clip1_10_1516)">
<g clip-path="url(#clip2_10_1516)">
<path d="M13.1776 29.2409H13.1188C5.7724 29.2409 -0.20459 23.2621 -0.20459 15.9135V15.8547C-0.20459 8.50608 5.7724 2.52734 13.1188 2.52734H13.1776C20.5241 2.52734 26.5012 8.50608 26.5012 15.8547V15.9135C26.5012 23.2621 20.5241 29.2409 13.1776 29.2409ZM13.1188 3.43158C6.27048 3.43158 0.699369 9.00431 0.699369 15.8547V15.9135C0.699369 22.7639 6.27048 28.3366 13.1188 28.3366H13.1776C20.0261 28.3366 25.5971 22.7639 25.5971 15.9135V15.8547C25.5971 9.00431 20.0261 3.43158 13.1776 3.43158H13.1188Z" fill="#ECEAEC"/>
<path d="M17.1396 8.23047H9.15575C6.95012 8.23047 5.15576 10.0254 5.15576 12.2316V19.5378C5.15576 21.7441 6.95012 23.539 9.15575 23.539H17.1396C19.3453 23.539 21.1396 21.7441 21.1396 19.5378V12.2316C21.1396 10.0254 19.3453 8.23047 17.1396 8.23047ZM6.56685 12.2316C6.56685 10.8039 7.72843 9.64196 9.15575 9.64196H17.1396C18.567 9.64196 19.7286 10.8039 19.7286 12.2316V19.5378C19.7286 20.9655 18.567 22.1275 17.1396 22.1275H9.15575C7.72843 22.1275 6.56685 20.9655 6.56685 19.5378V12.2316Z" fill="#ECEAEC"/>
<path d="M13.1479 19.6056C15.199 19.6056 16.8686 17.9365 16.8686 15.8839C16.8686 13.8313 15.1999 12.1621 13.1479 12.1621C11.0959 12.1621 9.42725 13.8313 9.42725 15.8839C9.42725 17.9365 11.0959 19.6056 13.1479 19.6056ZM13.1479 13.5745C14.4216 13.5745 15.4575 14.6107 15.4575 15.8848C15.4575 17.1588 14.4216 18.1951 13.1479 18.1951C11.8742 18.1951 10.8383 17.1588 10.8383 15.8848C10.8383 14.6107 11.8742 13.5745 13.1479 13.5745Z" fill="#ECEAEC"/>
<path d="M17.212 12.7633C17.7643 12.7633 18.2145 12.3139 18.2145 11.7606C18.2145 11.2072 17.7652 10.7578 17.212 10.7578C16.6588 10.7578 16.2095 11.2072 16.2095 11.7606C16.2095 12.3139 16.6588 12.7633 17.212 12.7633Z" fill="#ECEAEC"/>
</g>
</g>
</g>
<defs>
<clipPath id="clip0_10_1516">
<rect width="26" height="26" fill="white" transform="translate(0.147949 3.16895)"/>
</clipPath>
<clipPath id="clip1_10_1516">
<rect width="26" height="26" fill="white" transform="translate(0.147949 3.16895)"/>
</clipPath>
<clipPath id="clip2_10_1516">
<rect width="28" height="28" fill="white" transform="translate(-0.852051 2.16895)"/>
</clipPath>
</defs>
</svg>
