<svg width="27" height="30" viewBox="0 0 27 30" fill="none" xmlns="http://www.w3.org/2000/svg">
<g clip-path="url(#clip0_10_1524)">
<g clip-path="url(#clip1_10_1524)">
<g clip-path="url(#clip2_10_1524)">
<path d="M13.3141 29.2351H13.2553C5.90888 29.2351 -0.0681152 23.2563 -0.0681152 15.9077V15.8489C-0.0681152 8.50023 5.90888 2.52148 13.2553 2.52148H13.3141C20.6606 2.52148 26.6376 8.50023 26.6376 15.8489V15.9077C26.6376 23.2563 20.6606 29.2351 13.3141 29.2351ZM13.2553 3.42572C6.40696 3.42572 0.83585 8.99846 0.83585 15.8489V15.9077C0.83585 22.7581 6.40696 28.3308 13.2553 28.3308H13.3141C20.1625 28.3308 25.7336 22.7581 25.7336 15.9077V15.8489C25.7336 8.99846 20.1625 3.42572 13.3141 3.42572H13.2553Z" fill="#ECEAEC"/>
<path d="M17.2871 20.6428C17.1296 20.6428 17.0013 20.515 17.0013 20.3575V16.0213C17.0013 14.4535 16.1967 14.4535 15.8934 14.4535C15.0483 14.4535 14.6204 14.9809 14.6204 16.0213V20.3579C14.6204 20.5154 14.4926 20.6432 14.3351 20.6432H11.883C11.7255 20.6432 11.5977 20.5154 11.5977 20.3579V12.0973C11.5977 11.9398 11.7255 11.812 11.883 11.812H14.3355C14.493 11.812 14.6208 11.9398 14.6208 12.0973V12.4051L14.7684 12.2831C15.3489 11.803 16.0415 11.5596 16.8267 11.5596C17.7974 11.5596 18.6146 11.8696 19.1897 12.4568C19.7972 13.0769 20.118 14.0003 20.118 15.1267V20.3579C20.118 20.5154 19.9898 20.6432 19.8323 20.6432L17.2871 20.6428ZM15.8939 13.882C16.5212 13.882 17.5733 14.1601 17.5733 16.0213V20.0722H19.5465V15.1267C19.5465 13.2227 18.5552 12.1311 16.8267 12.1311C15.2832 12.1311 14.6145 13.2965 14.5866 13.346C14.5362 13.4374 14.4408 13.4941 14.3369 13.4941C14.3135 13.4941 14.2896 13.4905 14.2653 13.4846C14.1384 13.4527 14.0498 13.3397 14.0498 13.2101V12.3835H12.1688V20.0726H14.0498V16.0213C14.0498 14.6816 14.7392 13.882 15.8939 13.882Z" fill="white" stroke="white" stroke-width="0.2"/>
<path d="M7.68907 20.6433C7.53157 20.6433 7.40332 20.5155 7.40332 20.358V12.0978C7.40332 11.9403 7.53157 11.8125 7.68907 11.8125H10.2474C10.4049 11.8125 10.5327 11.9403 10.5327 12.0978V20.358C10.5327 20.5155 10.4049 20.6433 10.2474 20.6433H7.68907ZM7.97482 20.0727H9.96156V12.3835H7.97482V20.0727Z" fill="white" stroke="white" stroke-width="0.2"/>
<path d="M8.95661 11.3011C7.96481 11.3011 7.15796 10.4898 7.15796 9.49259C7.15796 8.49494 7.96481 7.68359 8.95661 7.68359C9.94704 7.68359 10.7534 8.49539 10.7534 9.49304C10.7534 10.4898 9.94704 11.3011 8.95661 11.3011ZM8.95661 8.25329C8.27981 8.25329 7.72946 8.80904 7.72946 9.49259C7.72946 10.1757 8.27981 10.7305 8.95661 10.7305C9.63296 10.7305 10.1828 10.1757 10.1828 9.49259C10.1824 8.80949 9.63296 8.25329 8.95661 8.25329Z" fill="white" stroke="white" stroke-width="0.2"/>
</g>
</g>
</g>
<defs>
<clipPath id="clip0_10_1524">
<rect width="25.98" height="26.95" fill="white" transform="translate(0.147949 2.68848)"/>
</clipPath>
<clipPath id="clip1_10_1524">
<rect width="25.98" height="26.95" fill="white" transform="translate(0.147949 2.68848)"/>
</clipPath>
<clipPath id="clip2_10_1524">
<rect width="27" height="28" fill="white" transform="translate(-0.362061 2.16309)"/>
</clipPath>
</defs>
</svg>
