<svg width="27" height="30" viewBox="0 0 27 30" fill="none" xmlns="http://www.w3.org/2000/svg">
<g clip-path="url(#clip0_10_1510)">
<g clip-path="url(#clip1_10_1510)">
<g clip-path="url(#clip2_10_1510)">
<path d="M13.1776 29.2409H13.1188C5.7724 29.2409 -0.20459 23.2621 -0.20459 15.9135V15.8547C-0.20459 8.50608 5.7724 2.52734 13.1188 2.52734H13.1776C20.5241 2.52734 26.5012 8.50608 26.5012 15.8547V15.9135C26.5012 23.2621 20.5241 29.2409 13.1776 29.2409ZM13.1188 3.43158C6.27048 3.43158 0.699369 9.00431 0.699369 15.8547V15.9135C0.699369 22.7639 6.27048 28.3366 13.1188 28.3366H13.1776C20.0261 28.3366 25.5971 22.7639 25.5971 15.9135V15.8547C25.5971 9.00431 20.0261 3.43158 13.1776 3.43158H13.1188Z" fill="#ECEAEC"/>
<path d="M16.9383 10.8061C16.419 10.2108 16.1069 9.43456 16.1069 8.58594H15.4562M16.9383 10.8061C17.4115 11.3489 18.0523 11.7436 18.782 11.8982C19.0087 11.9475 19.2453 11.9738 19.4918 11.9738V14.4078C18.2298 14.4078 17.0598 14.0033 16.1067 13.3191V18.2694C16.1067 20.7429 14.0954 22.7526 11.6273 22.7526C10.3357 22.7526 9.16915 22.2 8.35079 21.3218C7.60477 20.5192 7.14795 19.4469 7.14795 18.2694C7.14795 15.8321 9.1001 13.8454 11.5189 13.7928M16.9383 10.8061C16.9257 10.7979 16.9132 10.7896 16.9007 10.7812M9.97105 19.4601C9.72785 19.1246 9.58325 18.7135 9.58325 18.2661C9.58325 17.1379 10.5001 16.2202 11.6274 16.2202C11.8377 16.2202 12.0415 16.2563 12.2321 16.3156V13.829C12.0349 13.8026 11.8344 13.7862 11.6274 13.7862C11.5912 13.7862 11.3 13.8055 11.2639 13.8055M15.4527 8.58594H13.6715L13.6682 18.345C13.6288 19.437 12.7283 20.3153 11.6273 20.3153C10.9437 20.3153 10.3423 19.9765 9.96775 19.4634" stroke="white" stroke-width="0.75" stroke-linejoin="round"/>
</g>
</g>
</g>
<defs>
<clipPath id="clip0_10_1510">
<rect width="26" height="26" fill="white" transform="translate(0.147949 3.16895)"/>
</clipPath>
<clipPath id="clip1_10_1510">
<rect width="26" height="26" fill="white" transform="translate(0.147949 3.16895)"/>
</clipPath>
<clipPath id="clip2_10_1510">
<rect width="28" height="28" fill="white" transform="translate(-0.852051 2.16895)"/>
</clipPath>
</defs>
</svg>
