<svg width="27" height="30" viewBox="0 0 27 30" fill="none" xmlns="http://www.w3.org/2000/svg">
<g clip-path="url(#clip0_10_1503)">
<g clip-path="url(#clip1_10_1503)">
<g clip-path="url(#clip2_10_1503)">
<path d="M13.0402 29.2351H12.9815C5.63495 29.2351 -0.342041 23.2563 -0.342041 15.9077V15.8489C-0.342041 8.50025 5.63495 2.52148 12.9815 2.52148H13.0402C20.3867 2.52148 26.3637 8.50025 26.3637 15.8489V15.9077C26.3637 23.2563 20.3867 29.2351 13.0402 29.2351ZM12.9815 3.42572C6.13303 3.42572 0.56192 8.99848 0.56192 15.8489V15.9077C0.56192 22.7581 6.13303 28.3308 12.9815 28.3308H13.0402C19.8886 28.3308 25.4598 22.7581 25.4598 15.9077V15.8489C25.4598 8.99848 19.8886 3.42572 13.0402 3.42572H12.9815Z" fill="#ECEAEC"/>
<path d="M19.7101 15.6634C19.7101 11.679 19.2708 11.2364 15.2831 11.2363H11.0331C7.0453 11.2364 6.60596 11.679 6.60596 15.6634C6.60596 19.6478 7.0453 20.0904 11.0331 20.0905H15.2831C19.2708 20.0904 19.7101 19.6478 19.7101 15.6634Z" stroke="white" stroke-width="1.0625"/>
<path d="M15.106 15.6627L11.9185 13.7148V17.6106L15.106 15.6627Z" stroke="white" stroke-width="1.0625" stroke-linejoin="round"/>
</g>
</g>
</g>
<defs>
<clipPath id="clip0_10_1503">
<rect width="25.98" height="26.95" fill="white" transform="translate(0.167969 2.68848)"/>
</clipPath>
<clipPath id="clip1_10_1503">
<rect width="25.98" height="26.95" fill="white" transform="translate(0.167969 2.68848)"/>
</clipPath>
<clipPath id="clip2_10_1503">
<rect width="27" height="28" fill="white" transform="translate(-0.342041 2.16309)"/>
</clipPath>
</defs>
</svg>
